<?xml version="1.0" encoding="UTF-8" standalone="no"?>
<svg
   width="3415"
   height="1275"
   overflow="hidden"
   version="1.1"
   id="svg217"
   sodipodi:docname="logo.svg"
   inkscape:version="1.1.2 (b8e25be8, 2022-02-05)"
   xmlns:inkscape="http://www.inkscape.org/namespaces/inkscape"
   xmlns:sodipodi="http://sodipodi.sourceforge.net/DTD/sodipodi-0.dtd"
   xmlns="http://www.w3.org/2000/svg"
   xmlns:svg="http://www.w3.org/2000/svg">
  <sodipodi:namedview
     id="namedview219"
     pagecolor="#ffffff"
     bordercolor="#666666"
     borderopacity="1.0"
     inkscape:pageshadow="2"
     inkscape:pageopacity="0.0"
     inkscape:pagecheckerboard="0"
     showgrid="false"
     inkscape:zoom="0.81095964"
     inkscape:cx="1968.6553"
     inkscape:cy="856.39281"
     inkscape:window-width="1440"
     inkscape:window-height="847"
     inkscape:window-x="624"
     inkscape:window-y="1105"
     inkscape:window-maximized="0"
     inkscape:current-layer="text45" />
  <defs
     id="defs41">
    <rect
       x="2067.231"
       y="158.449"
       width="278.154"
       height="223.614"
       id="rect16716" />
    <rect
       x="920.982"
       y="153.904"
       width="2176.9684"
       height="899.34541"
       id="rect13699" />
    <clipPath
       id="clip0">
      <rect
         x="710"
         y="760"
         width="3415"
         height="1275"
         id="rect2" />
    </clipPath>
    <clipPath
       id="clip1">
      <rect
         x="1160"
         y="951"
         width="333"
         height="331"
         id="rect5" />
    </clipPath>
    <clipPath
       id="clip2">
      <rect
         x="1160"
         y="951"
         width="333"
         height="331"
         id="rect8" />
    </clipPath>
    <clipPath
       id="clip3">
      <rect
         x="590"
         y="802"
         width="1067"
         height="1023"
         id="rect11" />
    </clipPath>
    <clipPath
       id="clip4">
      <rect
         x="754"
         y="969"
         width="304"
         height="309"
         id="rect14" />
    </clipPath>
    <clipPath
       id="clip5">
      <rect
         x="754"
         y="969"
         width="304"
         height="309"
         id="rect17" />
    </clipPath>
    <clipPath
       id="clip6">
      <rect
         x="593"
         y="812"
         width="1066"
         height="1022"
         id="rect20" />
    </clipPath>
    <clipPath
       id="clip7">
      <rect
         x="752"
         y="1354"
         width="318"
         height="332"
         id="rect23" />
    </clipPath>
    <clipPath
       id="clip8">
      <rect
         x="752"
         y="1354"
         width="318"
         height="332"
         id="rect26" />
    </clipPath>
    <clipPath
       id="clip9">
      <rect
         x="593"
         y="801"
         width="1065"
         height="1025"
         id="rect29" />
    </clipPath>
    <clipPath
       id="clip10">
      <rect
         x="1160"
         y="1369"
         width="331"
         height="306"
         id="rect32" />
    </clipPath>
    <clipPath
       id="clip11">
      <rect
         x="1160"
         y="1369"
         width="331"
         height="306"
         id="rect35" />
    </clipPath>
    <clipPath
       id="clip12">
      <rect
         x="601"
         y="811"
         width="1066"
         height="1023"
         id="rect38" />
    </clipPath>
  </defs>
  <g
     clip-path="url(#clip0)"
     transform="translate(-710 -760)"
     id="g215">
    <g
       aria-label="工学研究部 電気通信大学"
       transform="translate(1596.44,1692)"
       id="text45"
       style="font-weight:700;font-size:440px;font-family:'MS Gothic', 'MS Gothic_MSFontService', sans-serif">
      <path
         d="M 186.12,-280.72 V -52.8 H 82.72 c -28.6,0 -44.44,-0.88 -64.24,-3.08 V 6.6 C 38.72,4.4 58.08,3.52 81.84,3.52 h 277.2 c 24.64,0 46.64,0.88 63.8,3.08 v -62.48 c -19.36,2.2 -36.08,3.08 -63.36,3.08 H 249.04 v -227.92 h 91.52 c 25.52,0 40.48,0.88 59.4,2.64 v -61.16 c -18.48,2.2 -32.56,2.64 -59.84,2.64 h -237.6 c -28.16,0 -44.88,-0.88 -60.72,-2.64 v 61.16 c 18.04,-1.76 33.88,-2.64 59.84,-2.64 z"
         style="font-family:'Andale Mono';-inkscape-font-specification:'Andale Mono Bold'"
         id="path8520" />
      <path
         d="m 522.28,-306.68 c -28.6,0 -36.52,-0.44 -53.24,-1.76 1.32,11 1.76,21.12 1.76,36.52 v 44.44 c 0,14.96 -0.44,25.52 -2.2,35.2 h 57.2 v -65.56 h 275.88 v 65.56 h 56.76 c -1.32,-11 -2.2,-21.56 -2.2,-34.76 v -44.88 c 0,-16.72 0.44,-25.52 1.76,-36.52 -14.52,1.32 -25.96,1.76 -54.56,1.76 h -14.08 c 7.92,-11.88 21.56,-35.2 28.6,-49.72 l -56.76,-13.64 c -7.92,22 -18.04,42.68 -32.12,63.36 H 697.4 c -8.36,-25.08 -12.76,-35.2 -28.16,-65.56 l -55.88,12.32 c 11,18.92 18.92,36.08 24.64,53.24 h -38.28 c -12.76,-25.08 -23.32,-41.8 -37.4,-60.72 l -54.12,13.2 c 15.4,20.24 21.12,29.92 30.36,47.52 z m 173.8,226.16 h 106.04 c 24.2,0 44.44,0.88 58.52,2.64 v -57.64 c -14.08,2.2 -35.2,3.08 -58.08,3.08 h -98.12 c 32.12,-22 56.32,-40.92 78.32,-61.16 4.84,-4.4 6.6,-6.16 11.44,-10.12 l -28.16,-31.24 c -8.36,1.32 -16.72,1.76 -33.88,1.76 H 593.12 c -19.8,0 -32.56,-0.44 -45.76,-1.76 v 51.92 c 14.52,-1.32 25.52,-1.76 45.32,-1.76 h 106.04 c -14.52,12.76 -25.96,20.68 -40.48,28.6 h -21.56 c 0.88,6.6 1.32,14.08 1.32,23.76 H 523.6 c -21.56,0 -40.04,-0.88 -56.32,-3.08 v 57.64 c 14.08,-1.76 33.44,-2.64 56.76,-2.64 H 638 v 54.12 c 0,7.92 -3.08,9.24 -21.56,9.24 -13.2,0 -30.8,-1.32 -54.12,-3.52 8.8,19.8 12.32,30.8 16.72,55.44 19.8,0.44 33.88,0.88 45.32,0.88 58.52,0 71.72,-8.36 71.72,-46.64 z"
         style="font-family:'Andale Mono';-inkscape-font-specification:'Andale Mono Bold'"
         id="path8522" />
      <path
         d="M 1208.68,-157.08 V -19.8 c 0,23.76 -0.88,36.96 -2.64,58.08 h 61.16 c -1.76,-20.68 -2.64,-37.4 -2.64,-58.52 v -136.84 c 24.2,0 30.36,0.44 42.24,2.2 v -57.64 c -12.32,1.76 -20.24,2.2 -42.24,2.2 v -96.36 c 20.68,0 24.2,0.44 37.4,1.76 v -55.88 c -13.64,1.76 -28.16,2.64 -47.96,2.64 h -121.44 c -22.88,0 -40.04,-0.88 -50.16,-2.64 v 55.88 c 9.68,-1.32 19.8,-1.76 30.8,-1.76 v 96.36 c -21.56,0 -26.4,-0.44 -37.84,-1.76 v 56.76 c 14.08,-1.32 17.6,-1.76 36.52,-1.76 -2.64,46.64 -7.04,72.16 -18.48,100.32 -9.68,23.32 -17.6,36.52 -31.24,51.48 0,-6.16 0,-7.48 0,-16.72 v -165.88 c 0,-13.2 0,-19.36 0.88,-30.8 -8.36,0.88 -13.2,1.32 -25.96,1.32 h -53.24 c 13.2,-29.92 20.24,-52.8 26.4,-87.56 h 21.12 c 16.28,0 26.4,0.44 38.72,1.76 v -55 c -14.08,1.76 -24.64,2.2 -44.44,2.2 h -80.08 c -17.6,0 -31.24,-0.88 -44,-2.2 v 55.44 c 12.76,-1.76 21.56,-2.2 37.4,-2.2 h 14.96 c -3.96,22 -7.48,35.64 -14.96,55.44 -14.96,39.6 -29.92,63.36 -53.24,85.36 9.24,21.56 13.64,38.72 18.04,67.76 11.88,-13.2 17.16,-20.68 24.2,-33 -0.88,23.32 -0.88,23.32 -0.88,39.16 v 72.6 c 0,17.16 -0.88,33 -2.2,46.2 h 55.88 v -40.48 h 30.8 v 23.32 h 51.92 c -0.88,-6.16 -0.88,-7.92 -1.32,-12.76 15.84,12.32 25.52,22.88 41.36,45.32 29.04,-36.96 43.56,-68.2 53.68,-113.08 5.72,-24.64 8.36,-49.72 10.12,-88 z m -40.04,-53.24 v -96.36 h 40.04 v 96.36 z m -188.32,44 h 32.12 v 107.36 h -32.12 z"
         style="font-family:'Andale Mono';-inkscape-font-specification:'Andale Mono Bold'"
         id="path8524" />
      <path
         d="m 1507.44,-334.84 h -113.52 c -22,0 -33.88,-0.44 -50.6,-1.76 1.32,9.24 1.76,18.92 1.76,33.44 v 34.32 c 0,14.08 -0.88,23.32 -2.2,34.32 h 57.2 V -283.8 H 1463 c -4.84,17.6 -11.44,28.6 -24.64,39.16 -16.28,13.64 -35.2,20.24 -83.6,29.04 14.52,17.6 22.44,29.48 30.8,47.08 55.88,-15.4 83.6,-29.92 105.6,-56.32 14.08,-16.72 19.8,-29.92 26.84,-58.96 h 32.12 v 61.16 c 0,29.48 11.44,36.52 61.16,36.52 58.52,0 72.6,-1.76 84.04,-11.44 8.8,-7.48 12.76,-18.48 15.4,-39.16 h 26.4 c -1.32,-10.56 -1.76,-20.24 -1.76,-33.88 v -32.56 c 0,-15.84 0.44,-23.76 1.76,-33.44 -17.16,1.32 -28.6,1.76 -50.6,1.76 h -120.56 v -8.36 c 0,-11 0.88,-18.92 2.2,-26.84 h -62.92 c 1.32,8.8 2.2,15.4 2.2,26.84 z m 172.48,78.76 c -10.12,-3.08 -12.76,-3.96 -21.12,-7.92 -0.44,29.48 -2.64,31.24 -33.44,31.24 -18.48,0 -21.12,-1.32 -21.12,-10.56 v -40.48 h 75.68 z m -143.44,99 c 0.44,-7.04 0.44,-7.04 0.88,-13.2 1.32,-20.68 1.32,-20.68 1.32,-22.44 0.44,-4.84 0.88,-7.92 1.76,-12.76 h -61.16 c 1.76,9.68 2.2,17.16 2.2,26.4 0,7.48 -0.44,13.2 -1.32,22 h -68.2 c -21.12,0 -35.2,-0.88 -48.84,-2.64 v 56.76 c 13.64,-1.76 25.96,-2.2 49.72,-2.2 h 55.88 c -9.24,22 -21.12,38.72 -37.84,51.48 -22,17.16 -45.32,27.72 -93.72,42.68 17.16,20.68 23.76,30.8 33.88,51.92 89.32,-31.24 138.16,-76.56 156.64,-146.08 h 57.2 l -1.76,91.08 V -11 c 0,35.2 14.08,43.56 70.84,43.56 53.68,0 69.96,-4.4 79.64,-21.12 8.36,-13.64 11.88,-35.64 15.4,-94.16 -24.2,-4.84 -34.32,-7.92 -54.56,-16.72 -0.44,38.72 -2.2,60.28 -5.28,70.4 -2.2,7.48 -7.92,9.24 -30.8,9.24 -15.84,0 -18.92,-2.2 -18.48,-13.64 l 1.32,-85.36 c 0.44,-21.12 0.88,-27.72 1.76,-40.04 -12.32,1.32 -22,1.76 -44.88,1.76 z"
         style="font-family:'Andale Mono';-inkscape-font-specification:'Andale Mono Bold'"
         id="path8526" />
      <path
         d="m 1925,-332.64 v -10.12 c 0,-11.88 0.88,-20.24 2.2,-29.04 h -61.6 c 1.32,8.8 2.2,18.04 2.2,29.48 v 9.68 h -40.92 c -22,0 -31.68,-0.44 -41.8,-2.2 v 55 c 8.36,-0.88 14.08,-1.32 28.16,-1.76 5.28,18.04 10.12,41.36 11.44,58.08 h -2.64 c -23.32,0 -33.44,-0.44 -45.32,-2.2 v 57.2 c 12.76,-1.76 22.88,-2.2 44.88,-2.2 H 1969 c 13.2,0 24.64,0.44 33.88,1.76 v -56.32 c -8.36,1.32 -18.04,1.76 -36.52,1.76 h -7.04 c 6.16,-19.36 8.8,-33.44 12.32,-58.08 14.08,0 20.24,0.44 27.72,1.76 v -54.56 c -11,1.32 -19.8,1.76 -39.16,1.76 z m -44.88,109.12 c -3.96,-27.72 -6.16,-39.16 -11.88,-58.08 h 49.72 c -2.64,22.44 -4.84,36.52 -10.56,58.08 z m -23.76,235.84 h 72.16 v 24.2 h 57.64 c -1.32,-9.24 -1.76,-18.04 -1.76,-32.56 v -115.28 c 0,-17.16 0.44,-22.44 1.32,-30.36 -6.16,0.88 -13.2,1.32 -32.12,1.32 h -118.36 c -16.28,0 -25.08,-0.44 -35.64,-1.32 1.32,9.68 1.76,18.92 1.76,35.64 V -5.28 c 0,18.04 -0.44,28.6 -2.2,42.24 h 57.2 z m 0,-102.08 h 72.6 v 51.48 h -72.6 z m 307.12,-271.92 c -9.68,1.76 -17.6,2.2 -35.2,2.2 h -79.2 c -14.52,0 -24.2,-0.44 -36.08,-1.76 0.88,12.76 1.32,22 1.32,35.2 v 314.16 c 0,17.6 -0.88,34.76 -2.2,50.6 h 60.28 c -1.76,-12.76 -2.64,-28.16 -2.64,-52.36 v -293.04 h 50.6 c -9.68,37.84 -21.56,68.64 -42.24,109.56 22.44,25.96 32.12,40.92 40.92,62.48 5.72,14.08 9.68,31.68 9.68,44 0,13.2 -7.48,17.6 -29.04,17.6 -7.04,0 -14.08,-0.44 -23.32,-1.76 8.8,17.6 11,28.6 11.88,56.32 9.24,0.88 14.08,0.88 18.04,0.88 20.68,0 36.08,-1.76 47.08,-6.16 21.12,-7.92 33,-29.04 33,-58.52 0,-18.48 -3.96,-39.6 -11.44,-57.64 -7.92,-20.68 -16.72,-34.76 -38.72,-62.48 17.16,-35.2 32.56,-71.72 44.44,-104.28 3.08,-8.8 4.84,-12.76 7.92,-18.92 z"
         style="font-family:'Andale Mono';-inkscape-font-specification:'Andale Mono Bold'"
         id="path8528" />
      <path
         d="m 129.684,-746.584 v 9.393 H 56.055 c -22.119,0 -30.603,-0.303 -39.39,-1.212 0.909,7.878 1.212,14.241 1.212,26.058 v 19.695 c 0,10.908 -0.303,16.362 -1.515,24.543 h 36.966 v -41.511 h 76.356 v 27.573 c 0,11.817 -0.303,19.695 -1.515,28.179 h 41.208 c -0.909,-7.878 -1.212,-13.332 -1.212,-28.179 v -27.573 h 80.598 v 41.511 h 36.966 c -1.212,-8.181 -1.515,-13.332 -1.515,-24.543 v -19.695 c 0,-12.726 0.303,-18.18 1.212,-26.058 -8.787,0.909 -17.271,1.212 -39.39,1.212 h -77.871 v -9.393 h 67.569 c 14.544,0 21.816,0.303 32.118,0.909 v -32.421 c -10.908,1.212 -21.816,1.818 -35.754,1.818 H 70.599 c -13.332,0 -24.543,-0.606 -36.057,-1.818 v 32.421 c 10.302,-0.606 18.483,-0.909 32.724,-0.909 z m 132.411,178.467 v -49.692 c 0,-14.544 0.303,-21.816 1.212,-30.3 -7.878,0.909 -16.362,1.212 -30.906,1.212 H 68.478 c -13.635,0 -21.513,-0.303 -29.997,-1.212 1.212,9.999 1.515,17.877 1.515,30.3 v 53.631 c 0,11.817 -0.606,22.119 -1.818,31.815 h 39.693 v -13.332 h 52.419 v 18.786 c 0,21.513 9.393,24.846 69.387,24.846 69.387,0 81.507,-3.03 88.779,-22.725 2.121,-5.757 3.03,-11.211 4.545,-28.179 -10.302,-1.818 -19.695,-4.848 -30.906,-9.696 z m -94.233,22.422 h 85.749 c -0.606,6.666 -2.121,9.393 -5.454,10.908 -4.242,2.121 -18.786,3.333 -38.784,3.333 -15.756,0 -32.421,-0.909 -36.36,-1.818 -3.939,-0.909 -5.151,-2.121 -5.151,-5.454 z m -37.572,-75.75 v 12.12 H 78.174 v -12.12 z m 37.572,0 h 56.055 v 12.12 h -56.055 z m -37.572,36.057 v 13.029 H 78.174 v -13.029 z m 37.572,0 h 56.055 v 13.029 H 167.862 Z M 64.236,-682.651 c 4.545,-0.303 8.181,-0.606 14.544,-0.606 h 26.058 c 6.969,0 9.999,0 14.241,0.606 v -19.695 c -3.333,0.303 -7.878,0.606 -14.241,0.606 H 78.78 c -7.878,0 -10.302,0 -14.544,-0.606 z m 0,27.27 c 5.757,-0.606 6.969,-0.606 14.544,-0.606 h 26.058 c 7.575,0 10.605,0 14.241,0.606 v -19.695 c -3.636,0.303 -7.272,0.606 -14.241,0.606 H 78.78 c -7.878,0 -10.302,0 -14.544,-0.606 z m 115.443,-27.573 c 6.06,-0.606 7.272,-0.606 14.544,-0.606 h 29.997 c 6.666,0 9.393,0 12.726,0.606 0.303,0 0.909,0 1.515,0 v -19.695 c -3.636,0.303 -7.272,0.606 -14.241,0.606 h -29.997 c -7.878,0 -10.302,0 -14.544,-0.606 z m 0,27.573 c 4.848,-0.606 7.878,-0.606 14.544,-0.606 h 29.997 c 7.575,0 10.605,0 14.241,0.606 v -19.695 c -3.03,0.303 -7.575,0.606 -14.241,0.606 h -29.997 c -8.181,0 -9.696,0 -14.544,-0.606 z"
         style="font-size:303px;font-family:'Andale Mono';-inkscape-font-specification:'Andale Mono Bold'"
         id="path8530" />
      <path
         d="m 372.387,-680.53 c 8.787,-0.909 16.665,-1.212 29.088,-1.212 h 123.018 c 15.453,0 23.634,0.303 33.33,1.515 v -34.845 c -6.969,0.909 -17.877,1.515 -33.33,1.515 H 393.294 c -3.636,0 -9.09,-0.303 -16.362,-0.606 3.333,-4.545 4.848,-6.666 8.484,-12.12 H 542.37 c 15.453,0 27.573,0.606 37.572,1.515 v -39.39 c -9.999,1.212 -21.21,1.818 -37.572,1.818 H 406.323 c 1.515,-3.03 1.818,-3.939 3.939,-7.878 2.121,-4.545 2.121,-4.545 5.151,-10.908 l -42.42,-5.454 c -1.212,6.06 -3.333,11.514 -7.272,19.392 -12.12,23.634 -29.088,44.238 -53.934,66.054 11.514,9.393 19.089,17.271 28.179,28.482 14.544,-13.635 20.301,-19.998 32.421,-35.451 z m 77.265,46.056 c -3.939,9.999 -13.029,23.028 -24.846,36.36 -22.725,-15.453 -29.391,-19.695 -51.207,-32.118 l -26.361,24.24 c 23.634,14.241 33.936,20.907 49.995,32.724 -20.907,15.756 -41.511,26.361 -79.083,41.511 12.423,12.423 17.877,19.392 26.058,33.33 39.39,-18.483 60.297,-31.209 83.628,-50.601 25.149,20.907 33.027,27.876 50.298,44.844 l 27.27,-30.3 c -18.483,-16.362 -31.512,-27.27 -49.692,-41.208 6.969,-8.181 13.332,-16.059 20.907,-26.664 6.666,-9.09 9.09,-12.423 11.817,-15.453 l -36.663,-16.665 h 57.873 c 0.303,44.238 4.848,72.417 14.847,97.263 9.09,22.422 24.543,36.966 39.087,36.966 9.393,0 17.271,-5.151 22.725,-14.544 6.666,-11.817 9.999,-26.664 12.726,-55.146 -11.514,-5.454 -18.483,-9.999 -29.088,-19.998 -0.303,22.119 -2.121,36.057 -6.06,41.814 -4.545,-5.151 -6.06,-8.787 -9.09,-19.998 -4.848,-17.877 -7.272,-42.723 -7.272,-72.72 0,-10.302 0.303,-18.786 1.515,-28.785 -8.787,0.909 -15.15,1.212 -35.754,1.212 H 354.813 c -11.514,0 -18.786,-0.303 -24.846,-1.515 v 36.966 c 9.09,-0.909 19.392,-1.515 36.36,-1.515 z"
         style="font-size:303px;font-family:'Andale Mono';-inkscape-font-specification:'Andale Mono Bold'"
         id="path17237" />
      <path
         d="m 738.411,-717.193 c -15.756,0 -24.846,-0.303 -34.239,-1.212 1.212,10.908 1.515,19.089 1.515,35.451 v 96.657 c 0,15.15 -0.606,24.543 -1.515,33.33 h 40.299 c -1.515,-6.969 -1.818,-14.544 -1.818,-33.33 v -12.726 h 33.633 v 10.605 c 0,15.756 -0.606,25.149 -1.818,33.936 h 39.087 c -1.212,-9.696 -1.515,-16.362 -1.515,-33.936 v -10.605 h 36.663 v 9.09 c 0,6.666 -0.606,7.575 -5.757,7.575 -4.848,0 -9.696,-0.606 -16.968,-1.818 3.939,9.999 5.757,17.271 6.969,30.3 6.666,0.303 11.514,0.303 14.544,0.303 30.906,0 38.481,-6.666 38.481,-33.33 v -97.869 c 0,-16.362 0.303,-25.452 1.212,-33.633 -8.181,0.909 -15.15,1.212 -29.997,1.212 h -19.089 c 10.302,-6.969 23.937,-17.271 34.845,-26.664 10.302,-8.787 10.605,-9.09 14.847,-11.817 l -18.786,-21.21 c -5.454,1.212 -15.756,1.818 -36.36,1.818 h -94.233 c -17.271,0 -27.876,-0.606 -38.178,-1.818 v 36.663 c 9.09,-1.212 17.271,-1.515 32.118,-1.515 h 23.331 l -20.604,11.514 c 6.969,3.636 11.817,6.666 21.513,13.029 z m 73.629,29.694 h 36.663 v 16.362 H 812.04 Z m -35.754,0 v 16.362 h -33.633 v -16.362 z m -33.633,44.238 h 33.633 v 16.362 h -33.633 z m 106.05,16.362 H 812.04 v -16.362 h 36.663 z m -26.361,-114.837 c -9.696,8.181 -15.15,12.423 -25.452,19.392 -12.12,-9.393 -18.18,-13.938 -26.058,-19.392 z m -207.858,-9.999 c 22.119,18.786 35.148,32.724 53.631,57.57 l 29.997,-30.3 c -16.665,-20.301 -29.694,-33.633 -54.54,-54.843 z m 2.424,122.412 c 7.575,-1.212 12.12,-1.515 18.786,-1.515 h 14.241 v 60.6 c -13.938,12.12 -27.27,21.21 -38.481,26.058 l 18.786,39.996 c 20.907,-15.453 23.028,-17.271 38.178,-32.118 23.937,25.755 44.238,30.906 120.897,30.906 37.269,0 68.478,-0.606 103.626,-2.121 2.121,-16.059 5.151,-28.482 9.696,-42.42 -47.268,5.454 -78.174,7.575 -113.019,7.575 -36.36,0 -68.478,-3.03 -80.598,-7.575 -9.09,-3.636 -16.665,-9.999 -21.816,-19.089 v -66.357 c 0,-16.968 0.303,-24.846 1.212,-33.633 -6.969,0.909 -13.635,1.212 -23.028,1.212 h -24.543 c -10.908,0 -16.059,-0.303 -23.937,-1.515 z"
         style="font-size:303px;font-family:'Andale Mono';-inkscape-font-specification:'Andale Mono Bold'"
         id="path17234" />
      <path
         d="m 986.265,-711.436 c 10.908,-25.452 12.12,-28.785 17.574,-46.056 2.121,-6.969 3.333,-9.999 4.848,-14.544 l -39.39,-13.635 c -1.515,12.423 -4.848,24.543 -10.908,41.208 -11.514,31.209 -24.846,53.631 -43.632,73.629 6.969,16.059 10.605,27.27 14.544,45.147 10.908,-12.726 14.241,-17.271 19.392,-26.967 -0.606,21.21 -0.606,24.543 -0.606,32.421 v 84.84 c 0,14.847 -0.303,22.119 -1.818,35.148 h 41.814 c -1.515,-12.726 -1.818,-21.513 -1.818,-34.845 z m 194.526,-62.115 c -8.787,0.909 -18.18,1.515 -32.724,1.515 h -98.778 c -13.332,0 -21.513,-0.303 -31.512,-1.515 v 33.936 c 8.181,-0.909 15.15,-1.212 27.573,-1.212 h 106.05 c 12.726,0 20.604,0.303 29.391,1.212 z m 0,89.991 c -6.666,0.909 -13.938,1.212 -22.725,1.212 h -123.018 c -9.999,0 -14.241,-0.303 -20.301,-0.909 v 31.512 c 6.363,-0.606 10.302,-0.909 20.301,-0.909 h 123.321 c 9.09,0 16.059,0.303 22.422,1.212 z m 0,42.42 c -6.666,0.909 -13.332,1.212 -22.422,1.212 h -123.321 c -9.696,0 -14.544,-0.303 -20.301,-0.909 v 31.512 c 5.757,-0.606 9.999,-0.909 20.301,-0.909 h 123.624 c 8.787,0 15.15,0.303 22.119,1.212 z m -130.29,127.866 h 92.415 v 13.029 h 39.693 c -1.212,-9.393 -1.515,-17.574 -1.515,-28.785 v -44.541 c 0,-10.605 0.303,-17.574 1.212,-24.846 -6.363,0.606 -13.029,0.909 -24.543,0.909 h -121.2 c -10.302,0 -18.18,-0.303 -24.846,-0.909 0.909,7.272 1.212,16.059 1.212,25.149 v 44.844 c 0,11.211 -0.606,20.301 -1.515,28.482 h 39.087 z m 0,-32.118 v -19.998 h 92.415 v 19.998 z m -51.51,-148.773 c 7.878,-0.909 15.756,-1.212 24.846,-1.212 h 149.076 c 11.514,0 20.301,0.303 28.179,1.515 v -35.754 c -7.575,0.909 -16.059,1.515 -28.179,1.515 h -149.076 c -10.605,0 -17.271,-0.303 -24.846,-1.515 z"
         style="font-size:303px;font-family:'Andale Mono';-inkscape-font-specification:'Andale Mono Bold'"
         id="path17231" />
      <path
         d="m 1457.733,-672.046 c 17.574,0 26.967,0.303 39.996,1.818 v -43.935 c -11.211,1.212 -22.422,1.818 -40.299,1.818 h -75.144 c 0.303,-10.302 0.606,-12.726 0.606,-20.907 0.303,-29.391 0.303,-31.815 2.121,-43.026 h -47.268 c 1.515,8.484 2.121,17.574 2.121,32.421 0,10.302 -0.303,18.483 -0.606,31.512 h -69.993 c -18.786,0 -29.694,-0.606 -40.299,-1.818 v 43.935 c 10.908,-1.515 19.695,-1.818 40.299,-1.818 h 66.357 c -6.363,45.45 -25.755,77.871 -63.63,105.141 -15.756,11.514 -28.482,18.18 -51.51,27.27 11.514,13.332 18.483,23.937 25.149,38.481 32.724,-14.544 54.54,-29.391 77.568,-53.328 19.998,-20.907 33.33,-42.117 42.42,-68.175 9.999,23.634 22.119,43.026 39.39,62.418 21.816,24.846 44.238,41.814 78.174,59.085 8.787,-18.483 14.544,-27.573 26.361,-41.511 -35.451,-14.241 -58.479,-29.391 -80.598,-53.328 -21.513,-23.028 -36.663,-48.783 -44.541,-76.053 z"
         style="font-size:303px;font-family:'Andale Mono';-inkscape-font-specification:'Andale Mono Bold'"
         id="path17228" />
      <path
         d="m 1571.661,-737.191 c -19.695,0 -25.149,-0.303 -36.663,-1.212 0.909,7.575 1.212,14.544 1.212,25.149 v 30.603 c 0,10.302 -0.303,17.574 -1.515,24.24 h 39.39 v -45.147 h 189.981 v 45.147 h 39.087 c -0.909,-7.575 -1.515,-14.847 -1.515,-23.937 v -30.906 c 0,-11.514 0.303,-17.574 1.212,-25.149 -9.999,0.909 -17.877,1.212 -37.572,1.212 h -9.696 c 5.454,-8.181 14.847,-24.24 19.695,-34.239 l -39.087,-9.393 c -5.454,15.15 -12.423,29.391 -22.119,43.632 h -21.816 c -5.757,-17.271 -8.787,-24.24 -19.392,-45.147 l -38.481,8.484 c 7.575,13.029 13.029,24.846 16.968,36.663 h -26.361 c -8.787,-17.271 -16.059,-28.785 -25.755,-41.814 l -37.269,9.09 c 10.605,13.938 14.544,20.604 20.907,32.724 z m 119.685,155.742 h 73.023 c 16.665,0 30.603,0.606 40.299,1.818 v -39.693 c -9.696,1.515 -24.24,2.121 -39.996,2.121 h -67.569 c 22.119,-15.15 38.784,-28.179 53.934,-42.117 3.333,-3.03 4.545,-4.242 7.878,-6.969 l -19.392,-21.513 c -5.757,0.909 -11.514,1.212 -23.331,1.212 h -95.748 c -13.635,0 -22.422,-0.303 -31.512,-1.212 v 35.754 c 9.999,-0.909 17.574,-1.212 31.209,-1.212 h 73.023 c -9.999,8.787 -17.877,14.241 -27.876,19.695 h -14.847 c 0.606,4.545 0.909,9.696 0.909,16.362 h -78.78 c -14.847,0 -27.573,-0.606 -38.784,-2.121 v 39.693 c 9.696,-1.212 23.028,-1.818 39.087,-1.818 h 78.477 v 37.269 c 0,5.454 -2.121,6.363 -14.847,6.363 -9.09,0 -21.21,-0.909 -37.269,-2.424 6.06,13.635 8.484,21.21 11.514,38.178 13.635,0.303 23.331,0.606 31.209,0.606 40.299,0 49.389,-5.757 49.389,-32.118 z"
         style="font-size:303px;font-family:'Andale Mono';-inkscape-font-specification:'Andale Mono Bold'"
         id="path17225" />
    </g>
    <g
       clip-path="url(#clip1)"
       id="g85">
      <g
         clip-path="url(#clip2)"
         id="g83">
        <g
           clip-path="url(#clip3)"
           id="g81">
          <path
             d="M134.207 890.609 129.535 887.424 129.535 712.233C129.535 540.014 129.535 537.254 133.783 533.006 138.03 528.759 140.79 528.759 313.221 528.759 485.652 528.759 488.412 528.759 492.659 533.006 496.906 537.254 496.906 540.014 496.906 711.383 496.906 882.752 496.906 885.513 492.659 889.76 488.412 894.007 485.652 894.007 313.646 894.007 159.053 894.007 138.454 893.582 134.207 890.609ZM482.466 881.903C486.076 878.717 486.289 870.648 486.289 713.719 486.289 567.832 485.864 548.296 482.891 544.049L479.706 539.377 313.221 539.377C164.786 539.377 146.524 539.802 143.551 542.775 140.578 545.748 140.153 564.01 140.153 712.445 140.153 860.88 140.578 879.142 143.551 882.115 146.524 885.088 164.786 885.513 312.584 885.513 463.992 885.513 478.856 885.3 482.466 881.903Z"
             fill="#FF0000"
             fill-rule="nonzero"
             fill-opacity="1"
             transform="matrix(1.003 0 0 -1 591.277 1824.31)"
             id="path47" />
          <path
             d="M438.297 847.926C433.413 846.227 428.741 843.042 427.679 840.919 426.618 838.795 412.602 823.506 396.676 807.154 369.919 779.761 366.946 777.213 359.939 777.213 354.205 777.213 350.383 775.301 343.163 768.719 338.066 764.047 333.395 757.464 332.757 754.279 331.908 750.456 314.283 731.344 277.333 694.395 246.967 664.241 221.909 637.484 220.635 633.874 217.662 626.23 190.056 597.137 183.261 594.377 177.952 592.465 177.315 589.28 180.5 580.998 182.199 576.327 183.898 575.477 191.755 575.477 202.797 575.477 222.758 585.458 228.28 593.74 230.191 596.712 235.287 600.747 239.747 602.658 243.994 604.782 250.789 609.666 254.611 613.701 258.434 617.735 274.36 634.087 289.65 650.013 304.939 665.727 323.626 685.688 331.059 694.183 338.703 702.889 351.02 713.719 358.877 718.816 373.105 727.947 374.379 729.646 386.058 756.402 390.093 765.109 409.629 789.104 435.536 816.923 442.969 824.78 450.189 840.494 450.189 848.988 450.189 851.961 449.764 851.961 438.297 847.926Z"
             fill="#FF0000"
             fill-rule="nonzero"
             fill-opacity="1"
             transform="matrix(1.003 0 0 -1 591.277 1824.31)"
             id="path49" />
          <path
             d="M551.694 891.671C548.084 889.76 547.871 878.93 547.871 712.657 547.871 544.049 548.084 535.555 551.694 532.369 555.304 528.972 570.805 528.759 730.92 528.759 897.829 528.759 906.323 528.972 909.509 532.582 912.906 536.192 913.119 551.694 913.119 712.02 913.119 868.525 912.694 887.636 909.721 890.609 906.748 893.582 887.636 894.007 730.92 894.007 615.612 893.795 554.029 893.157 551.694 891.671ZM899.103 882.115C902.076 879.142 902.501 860.88 902.501 712.445 902.501 564.01 902.076 545.748 899.103 542.775 896.13 539.802 877.868 539.377 729.433 539.377L562.948 539.377 559.763 544.049C556.79 548.296 556.365 567.832 556.365 712.445 556.365 857.057 556.79 876.594 559.763 880.841L562.948 885.513 729.433 885.513C877.868 885.513 896.13 885.088 899.103 882.115Z"
             fill="#FF0000"
             fill-rule="nonzero"
             fill-opacity="1"
             transform="matrix(1.003 0 0 -1 591.277 1824.31)"
             id="path51" />
          <path
             d="M806.305 854.297C800.147 848.563 744.086 797.811 682.078 741.325 592.465 659.569 569.107 637.272 569.107 633.237 569.107 626.654 635.361 554.242 641.519 554.242 643.643 554.242 656.384 564.01 669.55 576.114 833.274 724.124 894.007 780.61 894.007 784.433 894.007 790.591 826.266 864.277 820.745 864.277 819.259 864.277 812.676 859.818 806.305 854.297ZM856.42 823.718C874.683 803.757 889.76 785.707 889.76 783.583 889.76 781.46 886.575 777 882.54 773.603 878.717 770.417 824.143 720.939 761.286 663.604 683.565 592.89 645.766 559.551 642.581 559.551 639.183 559.551 630.052 568.045 611.577 588.218 597.137 603.932 582.06 620.496 577.813 624.743L570.381 632.812 574.628 638.121C576.751 641.094 624.531 685.051 680.38 735.804 753.429 802.27 782.734 827.54 784.645 826.054 787.83 823.293 790.591 826.054 787.83 829.239 784.645 833.062 793.139 840.282 796.961 836.884 800.572 834.123 803.544 836.459 800.572 839.857 799.085 841.556 799.722 843.467 802.483 846.015 805.243 848.563 806.942 848.988 808.004 847.289 809.915 844.104 813.313 846.865 811.826 850.474 810.34 854.509 814.799 860.03 819.471 860.03 821.594 860.03 838.158 843.679 856.42 823.718Z"
             fill="#FF0000"
             fill-rule="nonzero"
             fill-opacity="1"
             transform="matrix(1.003 0 0 -1 591.277 1824.31)"
             id="path53" />
          <path
             d="M817.135 817.984C805.88 807.792 796.749 798.873 796.961 798.023 797.599 795.9 839.432 749.607 840.919 749.607 841.556 749.819 851.324 758.526 862.579 769.356L883.389 788.892 860.455 812.676 837.733 836.672 817.135 817.984Z"
             fill="#FF0000"
             fill-rule="nonzero"
             fill-opacity="1"
             transform="matrix(1.003 0 0 -1 591.277 1824.31)"
             id="path55" />
          <path
             d="M762.56 792.714C747.271 778.699 747.271 778.699 751.518 774.452 755.553 770.205 755.765 770.205 770.63 783.796 778.911 791.228 785.707 798.448 785.707 799.722 785.707 802.058 781.46 806.942 779.124 806.942 778.274 806.942 770.842 800.572 762.56 792.714Z"
             fill="#FF0000"
             fill-rule="nonzero"
             fill-opacity="1"
             transform="matrix(1.003 0 0 -1 591.277 1824.31)"
             id="path57" />
          <path
             d="M774.452 780.186 760.012 766.595 768.081 757.039C772.329 751.73 776.363 747.483 776.788 747.483 777.213 747.483 784.857 753.854 793.352 761.711L809.278 775.726 800.147 785.07C795.263 789.954 790.591 794.201 789.954 794.201 789.317 793.989 782.309 787.83 774.452 780.186Z"
             fill="#FF0000"
             fill-rule="nonzero"
             fill-opacity="1"
             transform="matrix(1.003 0 0 -1 591.277 1824.31)"
             id="path59" />
          <path
             d="M722.001 756.19 701.827 737.29 706.287 732.618 710.746 727.947 731.344 746.634C742.599 756.827 751.73 765.746 751.73 766.595 751.73 768.081 744.51 775.089 743.024 775.089 742.599 775.089 733.043 766.383 722.001 756.19Z"
             fill="#FF0000"
             fill-rule="nonzero"
             fill-opacity="1"
             transform="matrix(1.003 0 0 -1 591.277 1824.31)"
             id="path61" />
          <path
             d="M675.283 689.723C631.538 649.801 595.651 616.037 595.651 614.55 595.651 611.79 636.847 565.921 639.395 565.921 641.307 565.921 800.572 711.383 800.572 713.082 800.359 713.931 790.166 725.398 777.637 738.564L754.916 762.348 675.283 689.723Z"
             fill="#FF0000"
             fill-rule="nonzero"
             fill-opacity="1"
             transform="matrix(1.003 0 0 -1 591.277 1824.31)"
             id="path63" />
          <path
             d="M801.846 750.031C798.66 746.209 798.66 745.784 802.695 742.174 808.004 737.29 808.004 735.167 802.483 729.008 798.66 725.186 798.236 723.7 800.572 720.939 802.058 719.24 804.394 717.754 805.668 717.754 806.942 717.966 814.587 724.124 822.869 731.557 837.521 744.935 837.521 745.147 833.486 749.607L829.664 753.854 824.992 749.607C819.259 744.298 817.135 744.298 813.737 749.607 810.552 754.916 806.517 754.916 801.846 750.031Z"
             fill="#FF0000"
             fill-rule="nonzero"
             fill-opacity="1"
             transform="matrix(1.003 0 0 -1 591.277 1824.31)"
             id="path65" />
          <path
             d="M673.372 711.808C654.897 694.607 653.623 692.908 655.959 688.449 657.233 685.901 658.932 683.777 659.781 683.777 660.418 683.777 670.399 692.484 681.866 703.101 702.04 721.788 702.889 722.85 699.491 726.46 697.368 728.796 695.244 730.495 694.607 730.495 693.97 730.495 684.414 722.001 673.372 711.808Z"
             fill="#FF0000"
             fill-rule="nonzero"
             fill-opacity="1"
             transform="matrix(1.003 0 0 -1 591.277 1824.31)"
             id="path67" />
          <path
             d="M626.23 667.638C615.187 657.658 606.056 648.739 605.631 647.89 605.419 647.04 606.905 644.704 608.817 642.793 612.427 639.608 613.913 640.67 633.662 658.932 654.048 678.044 654.473 678.468 650.438 682.078 646.403 685.688 645.554 685.264 626.23 667.638Z"
             fill="#FF0000"
             fill-rule="nonzero"
             fill-opacity="1"
             transform="matrix(1.003 0 0 -1 591.277 1824.31)"
             id="path69" />
          <path
             d="M586.519 632.175 581.848 627.079 586.095 623.257C590.342 619.434 590.554 619.434 595.226 623.894L599.685 628.565 595.438 632.812 591.191 637.06 586.519 632.175Z"
             fill="#FF0000"
             fill-rule="nonzero"
             fill-opacity="1"
             transform="matrix(1.003 0 0 -1 591.277 1824.31)"
             id="path71" />
          <path
             d="M140.153 489.049C138.454 488.412 135.269 486.501 133.358 484.59 129.748 481.617 129.535 470.362 129.535 307.063 129.535 152.682 129.96 132.084 132.933 127.837L136.118 123.165 312.372 123.165C485.652 123.165 488.412 123.165 492.659 127.412 496.906 131.659 496.906 134.42 496.906 306.426L496.906 481.405 492.447 485.439C488.2 489.262 481.829 489.474 315.557 489.899 220.847 490.111 141.852 489.686 140.153 489.049ZM482.042 475.671C486.289 471.424 486.289 468.663 486.289 307.275 486.289 162.238 485.864 142.701 482.891 138.454L479.706 133.783 313.221 133.783C164.786 133.783 146.524 134.207 143.551 137.18 140.578 140.153 140.153 158.415 140.153 306.85 140.153 455.285 140.578 473.548 143.551 476.521 146.524 479.493 164.786 479.918 312.372 479.918 475.034 479.918 477.795 479.918 482.042 475.671Z"
             fill="#FF0000"
             fill-rule="nonzero"
             fill-opacity="1"
             transform="matrix(1.003 0 0 -1 591.277 1824.31)"
             id="path73" />
          <path
             d="M236.774 451.038C223.396 448.278 205.983 442.756 196.427 438.509 190.693 435.961 182.624 432.563 178.801 431.077 174.979 429.59 171.369 427.679 170.732 426.618 169.67 424.919 185.384 393.915 193.241 382.236 201.311 370.132 212.566 345.499 211.928 341.252 211.504 338.066 207.894 335.093 201.098 331.696 193.029 327.873 191.118 326.174 192.18 323.202 193.029 321.29 194.091 316.619 194.728 312.796 195.79 306.426 195.365 306.001 181.774 299.418 173.917 295.596 166.273 290.499 164.574 288.163 160.964 283.067 160.327 265.229 163.3 255.673 164.361 252.276 166.697 244.206 168.608 237.623 173.493 221.272 188.145 199.4 210.23 175.616 222.546 162.238 230.403 157.141 238.048 157.141 243.144 157.141 262.256 167.334 282.43 180.713 294.959 188.994 300.267 190.693 302.603 187.083 304.727 183.261 331.908 165.423 335.306 165.211 347.835 164.786 405.595 204.496 437.66 235.5 461.656 258.859 463.567 263.53 450.826 268.839 437.872 274.36 436.811 274.997 434.475 279.032 432.563 282.005 433.413 283.916 439.146 289.013 446.791 295.808 451.038 304.727 448.702 308.549 447.853 309.823 447.216 320.229 447.003 331.696 447.003 355.055 446.366 356.116 424.706 372.467 403.896 387.969 402.409 388.394 383.085 383.297 371.193 380.325 367.796 378.626 369.707 377.352 370.132 376.927 376.29 372.467 383.297 367.371 398.162 356.541 399.861 354.417 396.463 351.02 392.641 347.197 260.345 280.306 256.735 280.306 252.913 280.306 224.67 304.939 221.909 310.46 220.423 313.646 220.847 315.344 223.396 317.256 225.094 318.53 258.221 332.333 296.87 348.047 335.518 363.761 366.946 377.139 366.309 377.564 365.885 377.989 361.85 377.139 357.603 375.865 350.383 373.317 349.321 373.529 346.136 377.564 344.225 379.9 339.128 383.297 335.093 384.996 327.236 388.394 323.626 392.216 312.159 410.903 308.124 417.486 301.966 424.282 298.781 425.98 295.596 427.679 289.65 433.838 285.615 439.359 281.368 445.092 276.059 450.189 273.299 451.038 268.202 452.312 243.569 452.312 236.774 451.038Z"
             fill="#FF0000"
             fill-rule="nonzero"
             fill-opacity="1"
             transform="matrix(1.003 0 0 -1 591.277 1824.31)"
             id="path75" />
          <path
             d="M554.879 487.351 547.871 484.378 547.871 307.275C547.871 138.454 548.084 129.96 551.694 126.775 555.304 123.377 570.805 123.165 730.92 123.165 897.829 123.165 906.323 123.377 909.509 126.987 912.906 130.597 913.119 146.099 913.119 306.001 913.119 402.197 912.269 482.042 911.42 483.528 907.173 490.111 896.768 490.536 729.858 490.536 589.705 490.324 560.612 489.899 554.879 487.351ZM898.679 476.308C902.289 473.123 902.501 465.053 902.501 306.638 902.501 158.415 902.076 140.153 899.103 137.18 896.13 134.207 877.868 133.783 729.433 133.783L562.948 133.783 559.763 138.454C556.79 142.701 556.365 162.238 556.365 306.85 556.365 451.463 556.79 470.999 559.763 475.246L562.948 479.918 728.796 479.918C880.204 479.918 895.069 479.706 898.679 476.308Z"
             fill="#FF0000"
             fill-rule="nonzero"
             fill-opacity="1"
             transform="matrix(1.003 0 0 -1 591.277 1824.31)"
             id="path77" />
          <path
             d="M820.745 455.285C815.012 452.312 806.305 445.729 801.633 440.421 793.564 431.289 792.714 430.865 786.981 433.201 783.583 434.475 780.61 435.112 780.186 434.899 779.973 434.475 777.85 425.131 775.514 413.876 768.719 380.749 766.595 377.776 705.437 317.893 573.354 188.357 575.477 190.693 575.477 183.261 575.477 179.438 576.539 174.13 577.813 171.157 580.998 164.361 592.465 158.203 599.261 159.902 602.446 160.751 616.249 173.705 633.025 191.543 648.527 208.318 669.55 230.616 679.53 241.021 689.511 251.639 703.314 266.291 710.321 273.936 762.773 331.271 782.946 351.657 793.989 358.665 802.483 364.186 810.977 367.371 845.166 378.201 849.2 379.475 856.633 382.873 861.517 385.633 868.737 389.88 870.86 392.641 873.833 401.56 879.779 419.185 874.895 448.065 866.189 448.065 864.065 448.065 860.243 442.332 855.783 432.351 847.077 412.39 840.494 408.992 826.479 417.486 826.054 417.699 829.239 426.193 833.486 436.386 844.104 462.081 841.556 465.903 820.745 455.285ZM606.056 191.33C611.152 185.597 609.666 176.465 602.446 171.157 596.925 167.122 596.288 167.122 590.767 170.307 582.485 175.404 581.848 184.96 589.492 190.906 596.5 196.427 601.384 196.639 606.056 191.33Z"
             fill="#FF0000"
             fill-rule="nonzero"
             fill-opacity="1"
             transform="matrix(1.003 0 0 -1 591.277 1824.31)"
             id="path79" />
        </g>
      </g>
    </g>
    <path
       d="M725 942.196C725 938.222 728.222 935 732.196 935L1079.8 935C1083.78 935 1087 938.222 1087 942.196L1087 1289.8C1087 1293.78 1083.78 1297 1079.8 1297L732.196 1297C728.222 1297 725 1293.78 725 1289.8Z"
       stroke="#FF0000"
       stroke-width="27.5"
       stroke-linecap="butt"
       stroke-linejoin="miter"
       stroke-miterlimit="8"
       stroke-opacity="1"
       fill="none"
       fill-rule="evenodd"
       id="path87" />
    <path
       d="M1145 942.196C1145 938.222 1148.22 935 1152.2 935L1500.8 935C1504.78 935 1508 938.222 1508 942.196L1508 1289.8C1508 1293.78 1504.78 1297 1500.8 1297L1152.2 1297C1148.22 1297 1145 1293.78 1145 1289.8Z"
       stroke="#FF0000"
       stroke-width="27.5"
       stroke-linecap="butt"
       stroke-linejoin="miter"
       stroke-miterlimit="8"
       stroke-opacity="1"
       fill="none"
       fill-rule="evenodd"
       id="path89" />
    <path
       d="M725 1342.2C725 1338.22 728.222 1335 732.196 1335L1079.8 1335C1083.78 1335 1087 1338.22 1087 1342.2L1087 1689.8C1087 1693.78 1083.78 1697 1079.8 1697L732.196 1697C728.222 1697 725 1693.78 725 1689.8Z"
       stroke="#FF0000"
       stroke-width="27.5"
       stroke-linecap="butt"
       stroke-linejoin="miter"
       stroke-miterlimit="8"
       stroke-opacity="1"
       fill="none"
       fill-rule="evenodd"
       id="path91" />
    <path
       d="M1145 1342.2C1145 1338.22 1148.22 1335 1152.2 1335L1500.8 1335C1504.78 1335 1508 1338.22 1508 1342.2L1508 1689.8C1508 1693.78 1504.78 1697 1500.8 1697L1152.2 1697C1148.22 1697 1145 1693.78 1145 1689.8Z"
       stroke="#FF0000"
       stroke-width="27.5"
       stroke-linecap="butt"
       stroke-linejoin="miter"
       stroke-miterlimit="8"
       stroke-opacity="1"
       fill="none"
       fill-rule="evenodd"
       id="path93" />
    <g
       clip-path="url(#clip4)"
       id="g133">
      <g
         clip-path="url(#clip5)"
         id="g131">
        <g
           clip-path="url(#clip6)"
           id="g129">
          <path
             d="M134.172 890.377 129.502 887.193 129.502 712.047C129.502 539.873 129.502 537.113 133.748 532.867 137.994 528.622 140.753 528.622 313.139 528.622 485.525 528.622 488.285 528.622 492.531 532.867 496.777 537.113 496.777 539.873 496.777 711.198 496.777 882.522 496.777 885.282 492.531 889.528 488.285 893.774 485.525 893.774 313.564 893.774 159.011 893.774 138.418 893.349 134.172 890.377ZM482.341 881.673C485.95 878.488 486.162 870.421 486.162 713.533 486.162 567.684 485.737 548.153 482.765 543.907L479.581 539.236 313.139 539.236C164.743 539.236 146.485 539.661 143.513 542.633 140.541 545.605 140.117 563.863 140.117 712.259 140.117 860.655 140.541 878.913 143.513 881.885 146.485 884.857 164.743 885.282 312.502 885.282 463.871 885.282 478.732 885.07 482.341 881.673Z"
             fill="#FF0000"
             fill-rule="nonzero"
             fill-opacity="1"
             transform="matrix(1.00228 0 0 -1 594.036 1833.25)"
             id="path95" />
          <path
             d="M438.183 847.705C433.3 846.007 428.629 842.822 427.568 840.699 426.506 838.576 412.495 823.291 396.572 806.944 369.823 779.558 366.851 777.01 359.845 777.01 354.113 777.01 350.291 775.099 343.073 768.518 337.978 763.848 333.308 757.266 332.671 754.082 331.821 750.26 314.201 731.154 277.261 694.214 246.902 664.068 221.851 637.318 220.577 633.709 217.605 626.066 190.007 596.981 183.213 594.222 177.906 592.311 177.269 589.126 180.453 580.847 182.152 576.176 183.85 575.327 191.705 575.327 202.744 575.327 222.7 585.305 228.22 593.585 230.131 596.557 235.226 600.591 239.684 602.501 243.93 604.624 250.724 609.507 254.545 613.541 258.366 617.574 274.289 633.921 289.574 649.844 304.86 665.554 323.542 685.51 330.972 694.002 338.615 702.706 350.928 713.533 358.783 718.628 373.007 727.757 374.281 729.455 385.957 756.205 389.991 764.909 409.522 788.899 435.423 816.71 442.853 824.565 450.071 840.275 450.071 848.767 450.071 851.739 449.647 851.739 438.183 847.705Z"
             fill="#FF0000"
             fill-rule="nonzero"
             fill-opacity="1"
             transform="matrix(1.00228 0 0 -1 594.036 1833.25)"
             id="path97" />
          <path
             d="M551.55 891.439C547.941 889.528 547.728 878.701 547.728 712.471 547.728 543.907 547.941 535.415 551.55 532.231 555.159 528.834 570.656 528.622 730.729 528.622 897.595 528.622 906.087 528.834 909.272 532.443 912.668 536.052 912.881 551.55 912.881 711.835 912.881 868.298 912.456 887.405 909.484 890.377 906.512 893.349 887.405 893.774 730.729 893.774 615.451 893.561 553.885 892.925 551.55 891.439ZM898.869 881.885C901.841 878.913 902.266 860.655 902.266 712.259 902.266 563.863 901.841 545.605 898.869 542.633 895.897 539.661 877.639 539.236 729.243 539.236L562.802 539.236 559.617 543.907C556.645 548.153 556.22 567.684 556.22 712.259 556.22 856.834 556.645 876.365 559.617 880.611L562.802 885.282 729.243 885.282C877.639 885.282 895.897 884.857 898.869 881.885Z"
             fill="#FF0000"
             fill-rule="nonzero"
             fill-opacity="1"
             transform="matrix(1.00228 0 0 -1 594.036 1833.25)"
             id="path99" />
          <path
             d="M806.095 854.074C799.938 848.342 743.892 797.603 681.901 741.132 592.311 659.397 568.958 637.106 568.958 633.072 568.958 626.491 635.195 554.097 641.352 554.097 643.475 554.097 656.213 563.863 669.375 575.964 833.057 723.936 893.774 780.407 893.774 784.228 893.774 790.385 826.051 864.052 820.531 864.052 819.045 864.052 812.464 859.594 806.095 854.074ZM856.197 823.503C874.455 803.547 889.528 785.502 889.528 783.379 889.528 781.256 886.343 776.798 882.31 773.401 878.488 770.216 823.928 720.751 761.088 663.431 683.387 592.735 645.598 559.405 642.413 559.405 639.016 559.405 629.888 567.897 611.418 588.065 596.981 603.775 581.908 620.334 577.662 624.58L570.232 632.647 574.478 637.955C576.601 640.927 624.368 684.873 680.202 735.612 753.233 802.061 782.53 827.325 784.44 825.839 787.625 823.079 790.385 825.839 787.625 829.023 784.44 832.844 792.932 840.062 796.754 836.666 800.363 833.906 803.335 836.241 800.363 839.638 798.877 841.336 799.514 843.247 802.273 845.794 805.033 848.342 806.732 848.767 807.793 847.068 809.704 843.884 813.101 846.644 811.615 850.253 810.128 854.286 814.587 859.806 819.257 859.806 821.38 859.806 837.939 843.459 856.197 823.503Z"
             fill="#FF0000"
             fill-rule="nonzero"
             fill-opacity="1"
             transform="matrix(1.00228 0 0 -1 594.036 1833.25)"
             id="path101" />
          <path
             d="M816.922 817.771C805.67 807.581 796.541 798.664 796.754 797.815 797.391 795.692 839.213 749.411 840.699 749.411 841.336 749.624 851.102 758.328 862.354 769.155L883.159 788.686 860.231 812.464 837.515 836.453 816.922 817.771Z"
             fill="#FF0000"
             fill-rule="nonzero"
             fill-opacity="1"
             transform="matrix(1.00228 0 0 -1 594.036 1833.25)"
             id="path103" />
          <path
             d="M762.361 792.508C747.076 778.496 747.076 778.496 751.322 774.25 755.356 770.004 755.568 770.004 770.429 783.591 778.708 791.022 785.502 798.24 785.502 799.514 785.502 801.849 781.256 806.732 778.921 806.732 778.071 806.732 770.641 800.363 762.361 792.508Z"
             fill="#FF0000"
             fill-rule="nonzero"
             fill-opacity="1"
             transform="matrix(1.00228 0 0 -1 594.036 1833.25)"
             id="path105" />
          <path
             d="M774.25 779.982 759.814 766.395 767.881 756.842C772.127 751.534 776.161 747.288 776.585 747.288 777.01 747.288 784.653 753.657 793.145 761.512L809.067 775.524 799.938 784.865C795.055 789.748 790.385 793.994 789.748 793.994 789.111 793.781 782.105 787.625 774.25 779.982Z"
             fill="#FF0000"
             fill-rule="nonzero"
             fill-opacity="1"
             transform="matrix(1.00228 0 0 -1 594.036 1833.25)"
             id="path107" />
          <path
             d="M721.813 755.992 701.644 737.098 706.103 732.427 710.561 727.757 731.154 746.439C742.405 756.629 751.534 765.546 751.534 766.395 751.534 767.881 744.316 774.887 742.83 774.887 742.405 774.887 732.852 766.183 721.813 755.992Z"
             fill="#FF0000"
             fill-rule="nonzero"
             fill-opacity="1"
             transform="matrix(1.00228 0 0 -1 594.036 1833.25)"
             id="path109" />
          <path
             d="M675.107 689.543C631.374 649.631 595.495 615.876 595.495 614.39 595.495 611.63 636.681 565.774 639.229 565.774 641.139 565.774 800.363 711.198 800.363 712.896 800.15 713.745 789.96 725.209 777.435 738.372L754.719 762.149 675.107 689.543Z"
             fill="#FF0000"
             fill-rule="nonzero"
             fill-opacity="1"
             transform="matrix(1.00228 0 0 -1 594.036 1833.25)"
             id="path111" />
          <path
             d="M801.637 749.836C798.452 746.015 798.452 745.59 802.486 741.981 807.793 737.098 807.793 734.975 802.273 728.818 798.452 724.997 798.027 723.511 800.363 720.751 801.849 719.053 804.184 717.567 805.458 717.567 806.732 717.779 814.374 723.936 822.654 731.366 837.303 744.741 837.303 744.953 833.269 749.411L829.448 753.657 824.777 749.411C819.045 744.104 816.922 744.104 813.525 749.411 810.341 754.719 806.307 754.719 801.637 749.836Z"
             fill="#FF0000"
             fill-rule="nonzero"
             fill-opacity="1"
             transform="matrix(1.00228 0 0 -1 594.036 1833.25)"
             id="path113" />
          <path
             d="M673.196 711.622C654.726 694.426 653.453 692.728 655.788 688.27 657.062 685.722 658.76 683.599 659.609 683.599 660.246 683.599 670.224 692.303 681.688 702.918 701.857 721.6 702.706 722.662 699.309 726.271 697.186 728.606 695.063 730.304 694.426 730.304 693.789 730.304 684.236 721.813 673.196 711.622Z"
             fill="#FF0000"
             fill-rule="nonzero"
             fill-opacity="1"
             transform="matrix(1.00228 0 0 -1 594.036 1833.25)"
             id="path115" />
          <path
             d="M626.066 667.464C615.027 657.486 605.898 648.57 605.473 647.721 605.261 646.871 606.747 644.536 608.658 642.625 612.267 639.441 613.753 640.503 633.497 658.76 653.877 677.867 654.302 678.292 650.268 681.901 646.235 685.51 645.385 685.085 626.066 667.464Z"
             fill="#FF0000"
             fill-rule="nonzero"
             fill-opacity="1"
             transform="matrix(1.00228 0 0 -1 594.036 1833.25)"
             id="path117" />
          <path
             d="M586.367 632.011 581.696 626.915 585.942 623.094C590.188 619.273 590.4 619.273 595.071 623.731L599.529 628.402 595.283 632.647 591.037 636.893 586.367 632.011Z"
             fill="#FF0000"
             fill-rule="nonzero"
             fill-opacity="1"
             transform="matrix(1.00228 0 0 -1 594.036 1833.25)"
             id="path119" />
          <path
             d="M140.117 488.922C138.418 488.285 135.234 486.374 133.323 484.464 129.714 481.491 129.502 470.24 129.502 306.983 129.502 152.642 129.926 132.049 132.898 127.803L136.083 123.133 312.29 123.133C485.525 123.133 488.285 123.133 492.531 127.379 496.777 131.625 496.777 134.385 496.777 306.346L496.777 481.279 492.319 485.313C488.073 489.134 481.704 489.346 315.475 489.771 220.79 489.983 141.815 489.559 140.117 488.922ZM481.916 475.547C486.162 471.301 486.162 468.541 486.162 307.195 486.162 162.196 485.737 142.664 482.765 138.418L479.581 133.748 313.139 133.748C164.743 133.748 146.485 134.172 143.513 137.144 140.541 140.117 140.117 158.374 140.117 306.77 140.117 455.167 140.541 473.424 143.513 476.396 146.485 479.368 164.743 479.793 312.29 479.793 474.91 479.793 477.67 479.793 481.916 475.547Z"
             fill="#FF0000"
             fill-rule="nonzero"
             fill-opacity="1"
             transform="matrix(1.00228 0 0 -1 594.036 1833.25)"
             id="path121" />
          <path
             d="M236.712 450.921C223.337 448.161 205.929 442.641 196.375 438.395 190.643 435.847 182.576 432.451 178.755 430.965 174.933 429.478 171.324 427.568 170.687 426.506 169.626 424.808 185.336 393.812 193.191 382.136 201.258 370.035 212.51 345.409 211.873 341.163 211.449 337.978 207.84 335.006 201.046 331.609 192.979 327.788 191.068 326.089 192.13 323.117 192.979 321.207 194.04 316.536 194.677 312.715 195.739 306.346 195.314 305.921 181.727 299.34 173.872 295.519 166.229 290.423 164.531 288.088 160.922 282.993 160.285 265.16 163.257 255.607 164.319 252.21 166.654 244.142 168.564 237.561 173.447 221.214 188.096 199.348 210.175 175.57 222.488 162.196 230.343 157.1 237.986 157.1 243.081 157.1 262.188 167.291 282.356 180.665 294.882 188.945 300.189 190.643 302.524 187.034 304.647 183.213 331.821 165.38 335.218 165.168 347.744 164.743 405.489 204.443 437.546 235.438 461.535 258.791 463.446 263.462 450.708 268.769 437.758 274.289 436.697 274.926 434.361 278.959 432.451 281.931 433.3 283.842 439.032 288.937 446.675 295.731 450.921 304.647 448.585 308.469 447.736 309.742 447.099 320.145 446.887 331.609 446.887 354.962 446.25 356.023 424.596 372.37 403.79 387.868 402.304 388.293 382.985 383.198 371.097 380.225 367.7 378.527 369.611 377.253 370.035 376.829 376.192 372.37 383.198 367.275 398.058 356.448 399.757 354.325 396.36 350.928 392.539 347.107 260.277 280.233 256.668 280.233 252.847 280.233 224.611 304.86 221.851 310.379 220.365 313.564 220.79 315.262 223.337 317.173 225.036 318.447 258.154 332.246 296.792 347.956 335.431 363.666 366.851 377.041 366.214 377.466 365.789 377.89 361.755 377.041 357.51 375.767 350.291 373.22 349.23 373.432 346.045 377.466 344.135 379.801 339.04 383.198 335.006 384.896 327.151 388.293 323.542 392.114 312.078 410.796 308.044 417.378 301.887 424.171 298.703 425.869 295.519 427.568 289.574 433.724 285.541 439.244 281.295 444.976 275.987 450.071 273.227 450.921 268.132 452.194 243.506 452.194 236.712 450.921Z"
             fill="#FF0000"
             fill-rule="nonzero"
             fill-opacity="1"
             transform="matrix(1.00228 0 0 -1 594.036 1833.25)"
             id="path123" />
          <path
             d="M554.734 487.223 547.728 484.251 547.728 307.195C547.728 138.418 547.941 129.926 551.55 126.742 555.159 123.345 570.656 123.133 730.729 123.133 897.595 123.133 906.087 123.345 909.272 126.954 912.668 130.563 912.881 146.061 912.881 305.921 912.881 402.092 912.031 481.916 911.182 483.402 906.936 489.983 896.534 490.408 729.668 490.408 589.551 490.196 560.466 489.771 554.734 487.223ZM898.444 476.184C902.053 473 902.266 464.932 902.266 306.558 902.266 158.374 901.841 140.117 898.869 137.144 895.897 134.172 877.639 133.748 729.243 133.748L562.802 133.748 559.617 138.418C556.645 142.664 556.22 162.196 556.22 306.77 556.22 451.345 556.645 470.877 559.617 475.122L562.802 479.793 728.606 479.793C879.974 479.793 894.835 479.581 898.444 476.184Z"
             fill="#FF0000"
             fill-rule="nonzero"
             fill-opacity="1"
             transform="matrix(1.00228 0 0 -1 594.036 1833.25)"
             id="path125" />
          <path
             d="M820.531 455.167C814.799 452.194 806.095 445.613 801.424 440.306 793.357 431.177 792.508 430.752 786.776 433.088 783.379 434.361 780.407 434.998 779.982 434.786 779.77 434.361 777.647 425.02 775.312 413.768 768.518 380.65 766.395 377.678 705.253 317.81 573.204 188.308 575.327 190.643 575.327 183.213 575.327 179.392 576.389 174.084 577.662 171.112 580.847 164.319 592.311 158.162 599.104 159.86 602.289 160.709 616.088 173.66 632.86 191.493 648.358 208.264 669.375 230.555 679.353 240.958 689.331 251.573 703.13 266.221 710.136 273.864 762.574 331.185 782.742 351.565 793.781 358.571 802.273 364.091 810.765 367.275 844.945 378.102 848.979 379.376 856.409 382.773 861.292 385.533 868.51 389.779 870.633 392.539 873.605 401.455 879.55 419.076 874.667 447.948 865.963 447.948 863.84 447.948 860.018 442.216 855.56 432.238 846.856 412.282 840.275 408.886 826.263 417.378 825.839 417.59 829.023 426.082 833.269 436.272 843.884 461.96 841.336 465.781 820.531 455.167ZM605.898 191.28C610.993 185.548 609.507 176.419 602.289 171.112 596.769 167.078 596.132 167.078 590.612 170.263 582.333 175.358 581.696 184.911 589.339 190.856 596.345 196.375 601.227 196.588 605.898 191.28Z"
             fill="#FF0000"
             fill-rule="nonzero"
             fill-opacity="1"
             transform="matrix(1.00228 0 0 -1 594.036 1833.25)"
             id="path127" />
        </g>
      </g>
    </g>
    <g
       clip-path="url(#clip7)"
       id="g173">
      <g
         clip-path="url(#clip8)"
         id="g171">
        <g
           clip-path="url(#clip9)"
           id="g169">
          <path
             d="M134.336 891.461 129.659 888.272 129.659 712.913C129.659 540.53 129.659 537.767 133.91 533.516 138.162 529.265 140.925 529.265 313.52 529.265 486.116 529.265 488.879 529.265 493.13 533.516 497.381 537.767 497.381 540.53 497.381 712.063 497.381 883.596 497.381 886.359 493.13 890.61 488.879 894.862 486.116 894.862 313.945 894.862 159.205 894.862 138.587 894.436 134.336 891.461ZM482.928 882.746C486.541 879.557 486.754 871.48 486.754 714.401 486.754 568.375 486.329 548.82 483.353 544.569L480.164 539.893 313.52 539.893C164.944 539.893 146.664 540.318 143.688 543.294 140.712 546.269 140.287 564.549 140.287 713.126 140.287 861.703 140.712 879.983 143.688 882.958 146.664 885.934 164.944 886.359 312.883 886.359 464.435 886.359 479.314 886.147 482.928 882.746Z"
             fill="#FF0000"
             fill-rule="nonzero"
             fill-opacity="1"
             transform="matrix(1 0 0 -1.00207 594.324 1825.67)"
             id="path135" />
          <path
             d="M438.716 848.737C433.827 847.036 429.151 843.848 428.088 841.722 427.025 839.597 412.997 824.293 397.055 807.926 370.273 780.506 367.297 777.956 360.283 777.956 354.544 777.956 350.718 776.043 343.491 769.453 338.389 764.777 333.713 758.188 333.076 755 332.225 751.174 314.583 732.044 277.598 695.059 247.203 664.876 222.121 638.094 220.846 634.48 217.87 626.828 190.238 597.708 183.436 594.945 178.122 593.032 177.484 589.843 180.673 581.554 182.373 576.878 184.074 576.027 191.938 576.027 202.991 576.027 222.971 586.017 228.498 594.307 230.411 597.283 235.512 601.321 239.976 603.234 244.227 605.36 251.029 610.249 254.855 614.287 258.681 618.326 274.623 634.693 289.927 650.634 305.231 666.364 323.936 686.344 331.375 694.846 339.027 703.561 351.355 714.401 359.22 719.503 373.461 728.643 374.737 730.343 386.427 757.125 390.466 765.84 410.021 789.859 435.953 817.704 443.392 825.568 450.619 841.297 450.619 849.8 450.619 852.775 450.194 852.775 438.716 848.737Z"
             fill="#FF0000"
             fill-rule="nonzero"
             fill-opacity="1"
             transform="matrix(1 0 0 -1.00207 594.324 1825.67)"
             id="path137" />
          <path
             d="M552.221 892.523C548.607 890.61 548.395 879.77 548.395 713.339 548.395 544.569 548.607 536.067 552.221 532.878 555.834 529.477 571.351 529.265 731.618 529.265 898.688 529.265 907.19 529.477 910.378 533.091 913.779 536.704 913.992 552.221 913.992 712.701 913.992 869.355 913.566 888.485 910.591 891.461 907.615 894.436 888.485 894.862 731.618 894.862 616.2 894.649 554.559 894.011 552.221 892.523ZM899.963 882.958C902.939 879.983 903.364 861.703 903.364 713.126 903.364 564.549 902.939 546.269 899.963 543.294 896.987 540.318 878.707 539.893 730.13 539.893L563.486 539.893 560.298 544.569C557.322 548.82 556.897 568.375 556.897 713.126 556.897 857.877 557.322 877.432 560.298 881.683L563.486 886.359 730.13 886.359C878.707 886.359 896.987 885.934 899.963 882.958Z"
             fill="#FF0000"
             fill-rule="nonzero"
             fill-opacity="1"
             transform="matrix(1 0 0 -1.00207 594.324 1825.67)"
             id="path139" />
          <path
             d="M807.076 855.114C800.912 849.375 744.797 798.574 682.73 742.034 593.032 660.2 569.651 637.881 569.651 633.843 569.651 627.253 635.968 554.772 642.132 554.772 644.258 554.772 657.011 564.549 670.19 576.665 834.07 724.817 894.862 781.357 894.862 785.183 894.862 791.347 827.056 865.104 821.53 865.104 820.042 865.104 813.453 860.64 807.076 855.114ZM857.239 824.505C875.519 804.525 890.61 786.458 890.61 784.332 890.61 782.207 887.422 777.743 883.383 774.342 879.557 771.154 824.931 721.628 762.014 664.238 684.218 593.457 646.383 560.086 643.195 560.086 639.794 560.086 630.654 568.588 612.162 588.781 597.708 604.51 582.617 621.089 578.365 625.34L570.926 633.417 575.177 638.731C577.303 641.707 625.128 685.706 681.03 736.507 754.149 803.037 783.482 828.331 785.395 826.844 788.583 824.08 791.347 826.844 788.583 830.032 785.395 833.858 793.897 841.085 797.723 837.684 801.337 834.921 804.313 837.259 801.337 840.66 799.849 842.36 800.487 844.273 803.25 846.824 806.013 849.375 807.714 849.8 808.776 848.099 810.689 844.911 814.09 847.674 812.602 851.288 811.114 855.326 815.578 860.853 820.254 860.853 822.38 860.853 838.959 844.486 857.239 824.505Z"
             fill="#FF0000"
             fill-rule="nonzero"
             fill-opacity="1"
             transform="matrix(1 0 0 -1.00207 594.324 1825.67)"
             id="path141" />
          <path
             d="M817.916 818.766C806.651 808.564 797.511 799.636 797.723 798.786 798.361 796.661 840.235 750.323 841.722 750.323 842.36 750.536 852.138 759.251 863.403 770.091L884.234 789.646 861.278 813.453 838.534 837.471 817.916 818.766Z"
             fill="#FF0000"
             fill-rule="nonzero"
             fill-opacity="1"
             transform="matrix(1 0 0 -1.00207 594.324 1825.67)"
             id="path143" />
          <path
             d="M763.289 793.472C747.985 779.444 747.985 779.444 752.236 775.192 756.275 770.941 756.487 770.941 771.366 784.545 779.656 791.984 786.458 799.211 786.458 800.487 786.458 802.825 782.207 807.714 779.869 807.714 779.018 807.714 771.579 801.337 763.289 793.472Z"
             fill="#FF0000"
             fill-rule="nonzero"
             fill-opacity="1"
             transform="matrix(1 0 0 -1.00207 594.324 1825.67)"
             id="path145" />
          <path
             d="M775.192 780.931 760.739 767.328 768.816 757.763C773.067 752.449 777.105 748.198 777.531 748.198 777.956 748.198 785.608 754.574 794.11 762.439L810.052 776.468 800.912 785.82C796.023 790.709 791.347 794.96 790.709 794.96 790.071 794.748 783.057 788.583 775.192 780.931Z"
             fill="#FF0000"
             fill-rule="nonzero"
             fill-opacity="1"
             transform="matrix(1 0 0 -1.00207 594.324 1825.67)"
             id="path147" />
          <path
             d="M722.691 756.913 702.498 737.995 706.962 733.319 711.426 728.643 732.044 747.348C743.309 757.55 752.449 766.478 752.449 767.328 752.449 768.816 745.222 775.83 743.734 775.83 743.309 775.83 733.744 767.115 722.691 756.913Z"
             fill="#FF0000"
             fill-rule="nonzero"
             fill-opacity="1"
             transform="matrix(1 0 0 -1.00207 594.324 1825.67)"
             id="path149" />
          <path
             d="M675.929 690.383C632.142 650.422 596.22 616.625 596.22 615.138 596.22 612.374 637.456 566.462 640.007 566.462 641.92 566.462 801.337 712.063 801.337 713.764 801.124 714.614 790.922 726.092 778.381 739.27L755.637 763.077 675.929 690.383Z"
             fill="#FF0000"
             fill-rule="nonzero"
             fill-opacity="1"
             transform="matrix(1 0 0 -1.00207 594.324 1825.67)"
             id="path151" />
          <path
             d="M802.612 750.748C799.424 746.922 799.424 746.497 803.462 742.884 808.776 737.995 808.776 735.87 803.25 729.705 799.424 725.879 798.999 724.391 801.337 721.628 802.825 719.928 805.163 718.44 806.438 718.44 807.714 718.652 815.366 724.817 823.655 732.256 838.322 745.647 838.322 745.86 834.283 750.323L830.457 754.574 825.781 750.323C820.042 745.009 817.916 745.009 814.515 750.323 811.327 755.637 807.288 755.637 802.612 750.748Z"
             fill="#FF0000"
             fill-rule="nonzero"
             fill-opacity="1"
             transform="matrix(1 0 0 -1.00207 594.324 1825.67)"
             id="path153" />
          <path
             d="M674.016 712.488C655.523 695.271 654.248 693.571 656.586 689.107 657.861 686.556 659.562 684.431 660.412 684.431 661.05 684.431 671.04 693.146 682.518 703.773 702.711 722.478 703.561 723.541 700.16 727.155 698.034 729.493 695.909 731.193 695.271 731.193 694.634 731.193 685.069 722.691 674.016 712.488Z"
             fill="#FF0000"
             fill-rule="nonzero"
             fill-opacity="1"
             transform="matrix(1 0 0 -1.00207 594.324 1825.67)"
             id="path155" />
          <path
             d="M626.828 668.277C615.775 658.286 606.635 649.359 606.21 648.509 605.998 647.659 607.486 645.321 609.399 643.408 613.012 640.219 614.5 641.282 634.268 659.562 654.673 678.692 655.098 679.117 651.06 682.73 647.021 686.344 646.171 685.919 626.828 668.277Z"
             fill="#FF0000"
             fill-rule="nonzero"
             fill-opacity="1"
             transform="matrix(1 0 0 -1.00207 594.324 1825.67)"
             id="path157" />
          <path
             d="M587.08 632.78 582.404 627.678 586.655 623.852C590.906 620.026 591.119 620.026 595.795 624.49L600.259 629.166 596.008 633.417 591.756 637.669 587.08 632.78Z"
             fill="#FF0000"
             fill-rule="nonzero"
             fill-opacity="1"
             transform="matrix(1 0 0 -1.00207 594.324 1825.67)"
             id="path159" />
          <path
             d="M140.287 489.517C138.587 488.879 135.398 486.966 133.485 485.053 129.872 482.077 129.659 470.812 129.659 307.356 129.659 152.828 130.084 132.21 133.06 127.959L136.249 123.283 312.67 123.283C486.116 123.283 488.879 123.283 493.13 127.534 497.381 131.785 497.381 134.548 497.381 306.719L497.381 481.865 492.918 485.903C488.667 489.729 482.29 489.942 315.858 490.367 221.058 490.58 141.988 490.155 140.287 489.517ZM482.503 476.126C486.754 471.875 486.754 469.112 486.754 307.569 486.754 162.393 486.329 142.838 483.353 138.587L480.164 133.91 313.52 133.91C164.944 133.91 146.664 134.336 143.688 137.311 140.712 140.287 140.287 158.567 140.287 307.144 140.287 455.72 140.712 474 143.688 476.976 146.664 479.952 164.944 480.377 312.67 480.377 475.488 480.377 478.251 480.377 482.503 476.126Z"
             fill="#FF0000"
             fill-rule="nonzero"
             fill-opacity="1"
             transform="matrix(1 0 0 -1.00207 594.324 1825.67)"
             id="path161" />
          <path
             d="M237 451.469C223.609 448.706 206.18 443.18 196.614 438.929 190.875 436.378 182.798 432.977 178.972 431.489 175.146 430.001 171.533 428.088 170.895 427.025 169.832 425.325 185.562 394.292 193.426 382.601 201.503 370.485 212.769 345.829 212.131 341.578 211.706 338.389 208.092 335.414 201.291 332.013 193.214 328.187 191.301 326.486 192.363 323.51 193.214 321.598 194.276 316.921 194.914 313.095 195.977 306.719 195.552 306.293 181.948 299.704 174.084 295.878 166.431 290.777 164.731 288.439 161.118 283.337 160.48 265.483 163.456 255.918 164.518 252.517 166.857 244.44 168.77 237.85 173.658 221.484 188.325 199.59 210.431 175.784 222.759 162.393 230.623 157.292 238.275 157.292 243.377 157.292 262.507 167.494 282.7 180.885 295.241 189.175 300.554 190.875 302.893 187.262 305.018 183.436 332.225 165.581 335.626 165.369 348.167 164.944 405.982 204.692 438.078 235.725 462.097 259.106 464.01 263.782 451.257 269.096 438.291 274.623 437.228 275.26 434.89 279.299 432.977 282.275 433.827 284.188 439.566 289.289 447.218 296.091 451.469 305.018 449.131 308.844 448.281 310.119 447.643 320.535 447.431 332.013 447.431 355.394 446.793 356.457 425.112 372.824 404.282 388.34 402.794 388.765 383.451 383.664 371.548 380.688 368.147 378.988 370.06 377.712 370.485 377.287 376.65 372.824 383.664 367.722 398.543 356.882 400.243 354.756 396.842 351.355 393.016 347.529 260.594 280.574 256.98 280.574 253.154 280.574 224.884 305.231 222.121 310.757 220.633 313.945 221.058 315.646 223.609 317.559 225.31 318.834 258.468 332.65 297.154 348.38 335.839 364.109 367.297 377.5 366.659 377.925 366.234 378.35 362.196 377.5 357.945 376.224 350.718 373.674 349.655 373.886 346.467 377.925 344.554 380.263 339.452 383.664 335.414 385.364 327.549 388.765 323.936 392.591 312.458 411.296 308.419 417.885 302.255 424.687 299.067 426.388 295.878 428.088 289.927 434.252 285.888 439.779 281.637 445.518 276.323 450.619 273.56 451.469 268.458 452.745 243.802 452.745 237 451.469Z"
             fill="#FF0000"
             fill-rule="nonzero"
             fill-opacity="1"
             transform="matrix(1 0 0 -1.00207 594.324 1825.67)"
             id="path163" />
          <path
             d="M555.409 487.816 548.395 484.841 548.395 307.569C548.395 138.587 548.607 130.084 552.221 126.896 555.834 123.495 571.351 123.283 731.618 123.283 898.688 123.283 907.19 123.495 910.378 127.109 913.779 130.722 913.992 146.239 913.992 306.293 913.992 402.581 913.141 482.503 912.291 483.99 908.04 490.58 897.625 491.005 730.556 491.005 590.268 490.792 561.148 490.367 555.409 487.816ZM899.538 476.764C903.151 473.575 903.364 465.498 903.364 306.931 903.364 158.567 902.939 140.287 899.963 137.311 896.987 134.336 878.707 133.91 730.13 133.91L563.486 133.91 560.298 138.587C557.322 142.838 556.897 162.393 556.897 307.144 556.897 451.894 557.322 471.45 560.298 475.701L563.486 480.377 729.493 480.377C881.045 480.377 895.924 480.164 899.538 476.764Z"
             fill="#FF0000"
             fill-rule="nonzero"
             fill-opacity="1"
             transform="matrix(1 0 0 -1.00207 594.324 1825.67)"
             id="path165" />
          <path
             d="M821.53 455.72C815.791 452.745 807.076 446.155 802.4 440.842 794.322 431.702 793.472 431.276 787.733 433.615 784.332 434.89 781.357 435.528 780.931 435.315 780.719 434.89 778.593 425.537 776.255 414.272 769.453 381.113 767.328 378.137 706.112 318.197 573.902 188.537 576.027 190.875 576.027 183.436 576.027 179.61 577.09 174.296 578.365 171.32 581.554 164.518 593.032 158.354 599.834 160.055 603.022 160.905 616.838 173.871 633.63 191.726 649.147 208.518 670.19 230.836 680.18 241.251 690.17 251.879 703.986 266.545 711 274.197 763.502 331.588 783.695 351.993 794.748 359.007 803.25 364.534 811.752 367.722 845.974 378.563 850.012 379.838 857.452 383.239 862.34 386.002 869.567 390.253 871.693 393.016 874.669 401.944 880.62 419.586 875.731 448.494 867.017 448.494 864.891 448.494 861.065 442.755 856.601 432.764 847.887 412.784 841.297 409.383 827.269 417.885 826.844 418.098 830.032 426.6 834.283 436.803 844.911 462.522 842.36 466.348 821.53 455.72ZM606.635 191.513C611.737 185.774 610.249 176.634 603.022 171.32 597.495 167.282 596.858 167.282 591.331 170.47 583.042 175.571 582.404 185.136 590.056 191.088 597.07 196.614 601.959 196.827 606.635 191.513Z"
             fill="#FF0000"
             fill-rule="nonzero"
             fill-opacity="1"
             transform="matrix(1 0 0 -1.00207 594.324 1825.67)"
             id="path167" />
        </g>
      </g>
    </g>
    <g
       clip-path="url(#clip10)"
       id="g213">
      <g
         clip-path="url(#clip11)"
         id="g211">
        <g
           clip-path="url(#clip12)"
           id="g209">
          <path
             d="M134.3 891.224 129.625 888.037 129.625 712.725C129.625 540.387 129.625 537.625 133.875 533.375 138.125 529.125 140.887 529.125 313.437 529.125 485.987 529.125 488.75 529.125 493 533.375 497.25 537.625 497.25 540.387 497.25 711.875 497.25 883.362 497.25 886.124 493 890.374 488.75 894.624 485.987 894.624 313.862 894.624 159.162 894.624 138.55 894.199 134.3 891.224ZM482.8 882.512C486.412 879.324 486.625 871.249 486.625 714.212 486.625 568.225 486.2 548.675 483.225 544.425L480.037 539.75 313.437 539.75C164.9 539.75 146.625 540.175 143.65 543.15 140.675 546.125 140.25 564.4 140.25 712.937 140.25 861.474 140.675 879.749 143.65 882.724 146.625 885.699 164.9 886.124 312.8 886.124 464.312 886.124 479.187 885.912 482.8 882.512Z"
             fill="#FF0000"
             fill-rule="nonzero"
             fill-opacity="1"
             transform="matrix(1.00126 0 0 -1 601.628 1833.37)"
             id="path175" />
          <path
             d="M438.6 848.512C433.712 846.812 429.037 843.625 427.975 841.5 426.912 839.375 412.887 824.075 396.95 807.712 370.175 780.299 367.2 777.75 360.187 777.75 354.45 777.75 350.625 775.837 343.4 769.25 338.3 764.575 333.625 757.987 332.987 754.8 332.137 750.975 314.5 731.85 277.525 694.875 247.137 664.7 222.062 637.925 220.787 634.312 217.812 626.662 190.187 597.55 183.387 594.787 178.075 592.875 177.437 589.687 180.625 581.4 182.325 576.725 184.025 575.875 191.887 575.875 202.937 575.875 222.912 585.862 228.437 594.15 230.35 597.125 235.45 601.162 239.912 603.075 244.162 605.2 250.962 610.087 254.787 614.125 258.612 618.162 274.55 634.525 289.85 650.462 305.15 666.187 323.85 686.162 331.287 694.662 338.937 703.375 351.262 714.212 359.125 719.312 373.362 728.45 374.637 730.15 386.325 756.925 390.362 765.637 409.912 789.65 435.837 817.487 443.275 825.349 450.5 841.074 450.5 849.574 450.5 852.549 450.075 852.549 438.6 848.512Z"
             fill="#FF0000"
             fill-rule="nonzero"
             fill-opacity="1"
             transform="matrix(1.00126 0 0 -1 601.628 1833.37)"
             id="path177" />
          <path
             d="M552.075 892.287C548.462 890.374 548.25 879.537 548.25 713.15 548.25 544.425 548.462 535.925 552.075 532.737 555.687 529.337 571.2 529.125 731.425 529.125 898.449 529.125 906.949 529.337 910.137 532.95 913.537 536.562 913.749 552.075 913.749 712.512 913.749 869.124 913.324 888.249 910.349 891.224 907.374 894.199 888.249 894.624 731.425 894.624 616.037 894.412 554.412 893.774 552.075 892.287ZM899.724 882.724C902.699 879.749 903.124 861.474 903.124 712.937 903.124 564.4 902.699 546.125 899.724 543.15 896.749 540.175 878.474 539.75 729.937 539.75L563.337 539.75 560.15 544.425C557.175 548.675 556.75 568.225 556.75 712.937 556.75 857.649 557.175 877.199 560.15 881.449L563.337 886.124 729.937 886.124C878.474 886.124 896.749 885.699 899.724 882.724Z"
             fill="#FF0000"
             fill-rule="nonzero"
             fill-opacity="1"
             transform="matrix(1.00126 0 0 -1 601.628 1833.37)"
             id="path179" />
          <path
             d="M806.862 854.887C800.7 849.149 744.6 798.362 682.55 741.837 592.875 660.025 569.5 637.712 569.5 633.675 569.5 627.087 635.8 554.625 641.962 554.625 644.087 554.625 656.837 564.4 670.012 576.512 833.849 724.625 894.624 781.15 894.624 784.975 894.624 791.137 826.837 864.874 821.312 864.874 819.825 864.874 813.237 860.412 806.862 854.887ZM857.012 824.287C875.287 804.312 890.374 786.25 890.374 784.125 890.374 782 887.187 777.537 883.149 774.137 879.324 770.95 824.712 721.437 761.812 664.062 684.037 593.3 646.212 559.937 643.025 559.937 639.625 559.937 630.487 568.437 612 588.625 597.55 604.35 582.462 620.925 578.212 625.175L570.775 633.25 575.025 638.562C577.15 641.537 624.962 685.525 680.85 736.312 753.95 802.825 783.275 828.112 785.187 826.625 788.375 823.862 791.137 826.625 788.375 829.812 785.187 833.637 793.687 840.862 797.512 837.462 801.125 834.7 804.099 837.037 801.125 840.437 799.637 842.137 800.275 844.049 803.037 846.599 805.799 849.149 807.5 849.574 808.562 847.875 810.474 844.687 813.875 847.449 812.387 851.062 810.9 855.099 815.362 860.624 820.037 860.624 822.162 860.624 838.737 844.262 857.012 824.287Z"
             fill="#FF0000"
             fill-rule="nonzero"
             fill-opacity="1"
             transform="matrix(1.00126 0 0 -1 601.628 1833.37)"
             id="path181" />
          <path
             d="M817.7 818.549C806.437 808.349 797.299 799.424 797.512 798.575 798.15 796.45 840.012 750.125 841.5 750.125 842.137 750.337 851.912 759.05 863.174 769.887L883.999 789.437 861.049 813.237 838.312 837.25 817.7 818.549Z"
             fill="#FF0000"
             fill-rule="nonzero"
             fill-opacity="1"
             transform="matrix(1.00126 0 0 -1 601.628 1833.37)"
             id="path183" />
          <path
             d="M763.087 793.262C747.787 779.237 747.787 779.237 752.037 774.987 756.075 770.737 756.287 770.737 771.162 784.337 779.45 791.775 786.25 799 786.25 800.275 786.25 802.612 782 807.5 779.662 807.5 778.812 807.5 771.375 801.125 763.087 793.262Z"
             fill="#FF0000"
             fill-rule="nonzero"
             fill-opacity="1"
             transform="matrix(1.00126 0 0 -1 601.628 1833.37)"
             id="path185" />
          <path
             d="M774.987 780.725 760.537 767.125 768.612 757.562C772.862 752.25 776.9 748 777.325 748 777.75 748 785.4 754.375 793.9 762.237L809.837 776.262 800.7 785.612C795.812 790.5 791.137 794.75 790.5 794.75 789.862 794.537 782.85 788.375 774.987 780.725Z"
             fill="#FF0000"
             fill-rule="nonzero"
             fill-opacity="1"
             transform="matrix(1.00126 0 0 -1 601.628 1833.37)"
             id="path187" />
          <path
             d="M722.5 756.712 702.312 737.8 706.775 733.125 711.237 728.45 731.85 747.15C743.112 757.35 752.25 766.275 752.25 767.125 752.25 768.612 745.025 775.625 743.537 775.625 743.112 775.625 733.55 766.912 722.5 756.712Z"
             fill="#FF0000"
             fill-rule="nonzero"
             fill-opacity="1"
             transform="matrix(1.00126 0 0 -1 601.628 1833.37)"
             id="path189" />
          <path
             d="M675.75 690.2C631.975 650.25 596.062 616.462 596.062 614.975 596.062 612.212 637.287 566.312 639.837 566.312 641.75 566.312 801.125 711.875 801.125 713.575 800.912 714.425 790.712 725.9 778.175 739.075L755.437 762.875 675.75 690.2Z"
             fill="#FF0000"
             fill-rule="nonzero"
             fill-opacity="1"
             transform="matrix(1.00126 0 0 -1 601.628 1833.37)"
             id="path191" />
          <path
             d="M802.4 750.55C799.212 746.725 799.212 746.3 803.25 742.687 808.562 737.8 808.562 735.675 803.037 729.512 799.212 725.687 798.787 724.2 801.125 721.437 802.612 719.737 804.95 718.25 806.224 718.25 807.5 718.462 815.15 724.625 823.437 732.062 838.099 745.45 838.099 745.662 834.062 750.125L830.237 754.375 825.562 750.125C819.825 744.812 817.7 744.812 814.299 750.125 811.112 755.437 807.075 755.437 802.4 750.55Z"
             fill="#FF0000"
             fill-rule="nonzero"
             fill-opacity="1"
             transform="matrix(1.00126 0 0 -1 601.628 1833.37)"
             id="path193" />
          <path
             d="M673.837 712.3C655.35 695.087 654.075 693.387 656.412 688.925 657.687 686.375 659.387 684.25 660.237 684.25 660.875 684.25 670.862 692.962 682.337 703.587 702.525 722.287 703.375 723.35 699.975 726.962 697.85 729.3 695.725 731 695.087 731 694.45 731 684.887 722.5 673.837 712.3Z"
             fill="#FF0000"
             fill-rule="nonzero"
             fill-opacity="1"
             transform="matrix(1.00126 0 0 -1 601.628 1833.37)"
             id="path195" />
          <path
             d="M626.662 668.1C615.612 658.112 606.475 649.187 606.05 648.337 605.837 647.487 607.325 645.15 609.237 643.237 612.85 640.05 614.337 641.112 634.1 659.387 654.5 678.512 654.925 678.937 650.887 682.55 646.85 686.162 646 685.737 626.662 668.1Z"
             fill="#FF0000"
             fill-rule="nonzero"
             fill-opacity="1"
             transform="matrix(1.00126 0 0 -1 601.628 1833.37)"
             id="path197" />
          <path
             d="M586.925 632.612 582.25 627.512 586.5 623.687C590.75 619.862 590.962 619.862 595.637 624.325L600.1 629 595.85 633.25 591.6 637.5 586.925 632.612Z"
             fill="#FF0000"
             fill-rule="nonzero"
             fill-opacity="1"
             transform="matrix(1.00126 0 0 -1 601.628 1833.37)"
             id="path199" />
          <path
             d="M140.25 489.387C138.55 488.75 135.362 486.837 133.45 484.925 129.837 481.95 129.625 470.687 129.625 307.275 129.625 152.787 130.05 132.175 133.025 127.925L136.212 123.25 312.587 123.25C485.987 123.25 488.75 123.25 493 127.5 497.25 131.75 497.25 134.512 497.25 306.637L497.25 481.737 492.787 485.775C488.537 489.6 482.162 489.812 315.775 490.237 221 490.45 141.95 490.025 140.25 489.387ZM482.375 476C486.625 471.75 486.625 468.987 486.625 307.487 486.625 162.35 486.2 142.8 483.225 138.55L480.037 133.875 313.437 133.875C164.9 133.875 146.625 134.3 143.65 137.275 140.675 140.25 140.25 158.525 140.25 307.062 140.25 455.6 140.675 473.875 143.65 476.85 146.625 479.825 164.9 480.25 312.587 480.25 475.362 480.25 478.125 480.25 482.375 476Z"
             fill="#FF0000"
             fill-rule="nonzero"
             fill-opacity="1"
             transform="matrix(1.00126 0 0 -1 601.628 1833.37)"
             id="path201" />
          <path
             d="M236.937 451.35C223.55 448.587 206.125 443.062 196.562 438.812 190.825 436.262 182.75 432.862 178.925 431.375 175.1 429.887 171.487 427.975 170.85 426.912 169.787 425.212 185.512 394.187 193.375 382.5 201.45 370.387 212.712 345.737 212.075 341.487 211.65 338.3 208.037 335.325 201.237 331.925 193.162 328.1 191.25 326.4 192.312 323.425 193.162 321.512 194.225 316.837 194.862 313.012 195.925 306.637 195.5 306.212 181.9 299.625 174.037 295.8 166.387 290.7 164.687 288.362 161.075 283.262 160.437 265.412 163.412 255.85 164.475 252.45 166.812 244.375 168.725 237.787 173.612 221.425 188.275 199.537 210.375 175.737 222.7 162.35 230.562 157.25 238.212 157.25 243.312 157.25 262.437 167.45 282.625 180.837 295.162 189.125 300.475 190.825 302.812 187.212 304.937 183.387 332.137 165.537 335.537 165.325 348.075 164.9 405.875 204.637 437.962 235.662 461.975 259.037 463.887 263.712 451.137 269.025 438.175 274.55 437.112 275.187 434.775 279.225 432.862 282.2 433.712 284.112 439.45 289.212 447.1 296.012 451.35 304.937 449.012 308.762 448.162 310.037 447.525 320.45 447.312 331.925 447.312 355.3 446.675 356.362 425 372.725 404.175 388.237 402.687 388.662 383.35 383.562 371.45 380.587 368.05 378.887 369.962 377.612 370.387 377.187 376.55 372.725 383.562 367.625 398.437 356.787 400.137 354.662 396.737 351.262 392.912 347.437 260.525 280.5 256.912 280.5 253.087 280.5 224.825 305.15 222.062 310.675 220.575 313.862 221 315.562 223.55 317.475 225.25 318.75 258.4 332.562 297.075 348.287 335.75 364.012 367.2 377.4 366.562 377.825 366.137 378.25 362.1 377.4 357.85 376.125 350.625 373.575 349.562 373.787 346.375 377.825 344.462 380.162 339.362 383.562 335.325 385.262 327.462 388.662 323.85 392.487 312.375 411.187 308.337 417.775 302.175 424.575 298.987 426.275 295.8 427.975 289.85 434.137 285.812 439.662 281.562 445.4 276.25 450.5 273.487 451.35 268.387 452.625 243.737 452.625 236.937 451.35Z"
             fill="#FF0000"
             fill-rule="nonzero"
             fill-opacity="1"
             transform="matrix(1.00126 0 0 -1 601.628 1833.37)"
             id="path203" />
          <path
             d="M555.262 487.687 548.25 484.712 548.25 307.487C548.25 138.55 548.462 130.05 552.075 126.862 555.687 123.462 571.2 123.25 731.425 123.25 898.449 123.25 906.949 123.462 910.137 127.075 913.537 130.687 913.749 146.2 913.749 306.212 913.749 402.475 912.899 482.375 912.049 483.862 907.799 490.45 897.387 490.875 730.362 490.875 590.112 490.662 561 490.237 555.262 487.687ZM899.299 476.637C902.912 473.45 903.124 465.375 903.124 306.85 903.124 158.525 902.699 140.25 899.724 137.275 896.749 134.3 878.474 133.875 729.937 133.875L563.337 133.875 560.15 138.55C557.175 142.8 556.75 162.35 556.75 307.062 556.75 451.775 557.175 471.325 560.15 475.575L563.337 480.25 729.3 480.25C880.812 480.25 895.687 480.037 899.299 476.637Z"
             fill="#FF0000"
             fill-rule="nonzero"
             fill-opacity="1"
             transform="matrix(1.00126 0 0 -1 601.628 1833.37)"
             id="path205" />
          <path
             d="M821.312 455.6C815.575 452.625 806.862 446.037 802.187 440.725 794.112 431.587 793.262 431.162 787.525 433.5 784.125 434.775 781.15 435.412 780.725 435.2 780.512 434.775 778.387 425.425 776.05 414.162 769.25 381.012 767.125 378.037 705.925 318.112 573.75 188.487 575.875 190.825 575.875 183.387 575.875 179.562 576.937 174.25 578.212 171.275 581.4 164.475 592.875 158.312 599.675 160.012 602.862 160.862 616.675 173.825 633.462 191.675 648.975 208.462 670.012 230.775 680 241.187 689.987 251.812 703.8 266.475 710.812 274.125 763.3 331.5 783.487 351.9 794.537 358.912 803.037 364.437 811.537 367.625 845.75 378.462 849.787 379.737 857.224 383.137 862.112 385.9 869.337 390.15 871.462 392.912 874.437 401.837 880.387 419.475 875.499 448.375 866.787 448.375 864.662 448.375 860.837 442.637 856.375 432.65 847.662 412.675 841.074 409.275 827.049 417.775 826.625 417.987 829.812 426.487 834.062 436.687 844.687 462.4 842.137 466.225 821.312 455.6ZM606.475 191.462C611.575 185.725 610.087 176.587 602.862 171.275 597.337 167.237 596.7 167.237 591.175 170.425 582.887 175.525 582.25 185.087 589.9 191.037 596.912 196.562 601.8 196.775 606.475 191.462Z"
             fill="#FF0000"
             fill-rule="nonzero"
             fill-opacity="1"
             transform="matrix(1.00126 0 0 -1 601.628 1833.37)"
             id="path207" />
        </g>
      </g>
    </g>
    <text
       xml:space="preserve"
       transform="translate(710,760)"
       id="text13697"
       style="fill:black;fill-opacity:1;line-height:1.25;stroke:none;font-family:sans-serif;font-style:normal;font-weight:normal;font-size:40px;white-space:pre;shape-inside:url(#rect13699)" />
    <text
       xml:space="preserve"
       transform="translate(710,760)"
       id="text16714"
       style="fill:black;fill-opacity:1;line-height:1.25;stroke:none;font-family:sans-serif;font-style:normal;font-weight:normal;font-size:40px;white-space:pre;shape-inside:url(#rect16716)" />
  </g>
</svg>
